<svg width="129" height="25" viewBox="0 0 129 25" fill="none" xmlns="http://www.w3.org/2000/svg">
<path d="M14.1094 20.4062L0.53125 14.5938V11.5938L14.1094 5.79688V9.53125L5.125 12.7812L4.17188 13.125L5.125 13.4531L14.1094 16.6719V20.4062ZM23.9769 24.9531H20.5394L29.4769 0.25H32.8988L23.9769 24.9531ZM38.4225 20.4062V16.7031L47.86 13.3594L48.8131 13.0781L47.8756 12.7656L38.4225 9.48438V5.78125L52.3756 11.5781V14.5938L38.4225 20.4062ZM86.97 17.7656H79.8294L78.2825 23H74.3763L81.7825 0.25H85.1106L92.3919 23H88.5013L86.97 17.7656ZM80.7825 14.5469H86.0481L83.4388 5.54688L80.7825 14.5469ZM99.5719 20.75C99.5719 20.0312 99.801 19.4167 100.259 18.9062C100.728 18.3958 101.4 18.1406 102.275 18.1406C103.129 18.1406 103.796 18.3958 104.275 18.9062C104.754 19.4062 104.994 20.0208 104.994 20.75C104.994 21.4792 104.749 22.0885 104.259 22.5781C103.78 23.0677 103.119 23.3125 102.275 23.3125C101.421 23.3125 100.754 23.0677 100.275 22.5781C99.8063 22.0781 99.5719 21.4688 99.5719 20.75ZM127.408 13.3125H117.783V23H114.002V0.25H128.783V3.35938H117.783V10.2188H127.408V13.3125Z" fill="#00AFC7"/>
</svg>
